<?xml version="1.0" encoding="utf-8"?>
<!-- Generator: Adobe Illustrator 26.0.2, SVG Export Plug-In . SVG Version: 6.00 Build 0)  -->
<svg version="1.1" id="Layer_1" xmlns="http://www.w3.org/2000/svg" xmlns:xlink="http://www.w3.org/1999/xlink" x="0px" y="0px"
	 viewBox="0 0 300.2 225.2" style="enable-background:new 0 0 300.2 225.2;" xml:space="preserve">
<style type="text/css">
	.st0{fill:#FF9A00;}
</style>
<g id="Layer_2_1_">
	<g id="Outlined_Mnemonics_Logos">
		<g id="Ai">
			<path class="st0" d="M147,146.2h-42.7l-8.7,29.7c-0.3,1.2-1.2,1.8-2.2,1.7H71.8c-1.3,0-1.7-0.8-1.3-2.2l37-117.3
				c0.4-1.3,0.7-2.6,1.2-4.2c0.5-2.6,0.7-5.4,0.7-8.3c-0.1-0.7,0.4-1.3,0.9-1.4c0.1,0,0.3,0,0.4,0H140c0.9,0,1.4,0.4,1.5,1.1
				l41.9,130.3c0.4,1.4,0,2-1.2,2h-23.9c-0.8,0.1-1.7-0.5-1.8-1.4L147,146.2z M110.9,120.6h29.2c-0.7-2.6-1.7-5.8-2.7-9.1
				c-1-3.4-2.1-7.1-3.1-10.9c-1.2-3.9-2.2-7.8-3.3-11.7c-1.2-3.9-2.2-7.6-3.1-11.3c-0.9-3.5-1.7-6.8-2.6-9.9h-0.3
				c-1,5.4-2.3,10.9-3.9,16.3c-1.7,6-3.5,12.4-5.3,18.7C114.4,109.3,112.7,115.3,110.9,120.6L110.9,120.6z"/>
			<path class="st0" d="M208.3,66c-3.8,0.1-7.4-1.6-10.2-4.5c-2.7-3.2-4-7.4-3.9-11.7c-0.1-4.3,1.4-8.4,4.1-11.3
				c2.8-2.9,6.4-4.5,10.2-4.5c4.5,0,7.9,1.6,10.5,4.5c2.6,3,3.9,7.1,3.8,11.3c0.1,4.3-1.3,8.4-4,11.7
				C216.1,64.7,212.3,66.3,208.3,66z M195.5,175.9V78.4c0-1.3,0.5-1.7,1.5-1.7h22.7c1,0,1.5,0.7,1.5,1.7v97.4c0,1.4-0.5,2-1.5,2
				h-22.5C196,177.9,195.5,177.1,195.5,175.9z"/>
		</g>
	</g>
</g>
</svg>
