<?xml version="1.0" encoding="utf-8"?>
<!-- Generator: Adobe Illustrator 26.0.2, SVG Export Plug-In . SVG Version: 6.00 Build 0)  -->
<svg version="1.1" id="Layer_1" xmlns="http://www.w3.org/2000/svg" xmlns:xlink="http://www.w3.org/1999/xlink" x="0px" y="0px"
	 viewBox="0 0 299.6 225.5" style="enable-background:new 0 0 299.6 225.5;" xml:space="preserve">
<style type="text/css">
	.st0{fill:#264DE4;}
	.st1{fill:#2965F1;}
	.st2{fill:#EBEBEB;}
	.st3{fill:#FFFFFF;}
</style>
<g>
	<path class="st0" d="M149.7,218.7l-52.5-17L85.6,48.5H214l-11.7,153.2L149.7,218.7L149.7,218.7z"/>
	<path class="st1" d="M192.3,191.9l10-130.9h-52.5v144.7L192.3,191.9L192.3,191.9z"/>
	<path class="st2" d="M112.4,117.8l1.4,18.8h36v-18.8H112.4L112.4,117.8z"/>
	<path class="st2" d="M109.5,79.8l1.5,18.8h38.9V79.8H109.5L109.5,79.8z"/>
	<path class="st2" d="M149.8,166.6L149.8,166.6l-18-5.6l-1.1-15h-16.1l2.3,29.5l32.9,10.7l0.1,0V166.6L149.8,166.6z"/>
	<path d="M115.8,6.8h19.5v9.5h-11.3v9.5h11.3v9.5h-19.5V6.8L115.8,6.8z"/>
	<path d="M139.2,6.8h19.5v8.3h-11.3v1.7h11.3v19h-19.5v-8.7h11.3v-1.7h-11.3V6.8L139.2,6.8z"/>
	<path d="M162.5,6.8H182v8.3h-11.3v1.7H182v19h-19.5v-8.7h11.3v-1.7h-11.3V6.8L162.5,6.8z"/>
	<path class="st3" d="M187.1,117.8l2.9-38h-40.3v18.8h22.7l-1.5,19.2h-21.2v18.8h19.8l-1.9,24.4l-17.9,5.7v19.5l33-10.7l0.2-3.2
		l3.8-49.5L187.1,117.8L187.1,117.8z"/>
</g>
</svg>
