<?xml version="1.0" encoding="utf-8"?>
<!-- Generator: Adobe Illustrator 26.0.2, SVG Export Plug-In . SVG Version: 6.00 Build 0)  -->
<svg version="1.1" id="Layer_1" xmlns="http://www.w3.org/2000/svg" xmlns:xlink="http://www.w3.org/1999/xlink" x="0px" y="0px"
	 viewBox="0 0 300 225.3" style="enable-background:new 0 0 300 225.3;" xml:space="preserve">
<style type="text/css">
	.st0{fill:#161614;}
</style>
<g>
	<path class="st0" d="M147.9,0C88.2,0,39.7,51.7,39.7,115.5c0,51,31,94.3,74,109.6c5.4,1.1,7.4-2.5,7.4-5.6c0-2.8-0.1-11.9-0.1-21.5
		c-30.1,7-36.5-13.6-36.5-13.6c-4.9-13.4-12-16.9-12-16.9c-9.8-7.2,0.7-7,0.7-7c10.9,0.8,16.6,11.9,16.6,11.9
		c9.7,17.7,25.3,12.6,31.5,9.6c1-7.5,3.8-12.6,6.9-15.4c-24-2.9-49.3-12.8-49.3-57.1c0-12.6,4.2-22.9,11.1-31
		c-1.1-2.9-4.8-14.7,1-30.6c0,0,9.1-3.1,29.8,11.8c8.6-2.6,17.9-3.8,27.1-3.9c9.2,0,18.5,1.3,27.1,3.9
		c20.7-14.9,29.7-11.8,29.7-11.8c5.9,15.9,2.2,27.7,1.1,30.6c6.9,8.1,11.1,18.4,11.1,31c0,44.4-25.3,54.1-49.4,57
		c3.9,3.6,7.3,10.6,7.3,21.4c0,15.5-0.1,27.9-0.1,31.7c0,3.1,1.9,6.7,7.4,5.5c43-15.3,73.9-58.6,73.9-109.6
		C256.1,51.7,207.7,0,147.9,0z M80.2,164.6c-0.2,0.6-1.1,0.7-1.9,0.4c-0.8-0.4-1.2-1.2-1-1.7c0.2-0.6,1.1-0.8,1.9-0.4
		C80.1,163.2,80.5,164,80.2,164.6z M85.5,169.6c-0.5,0.5-1.5,0.3-2.2-0.5c-0.7-0.8-0.8-1.9-0.3-2.4c0.5-0.5,1.5-0.3,2.2,0.5
		C86,168,86.1,169.1,85.5,169.6z M89.2,176.1c-0.7,0.5-1.7,0-2.4-1c-0.7-1-0.7-2.3,0-2.8c0.7-0.5,1.7,0,2.4,1
		C89.9,174.4,89.9,175.6,89.2,176.1z M95.4,183.6c-0.6,0.7-1.9,0.5-2.8-0.4c-0.9-0.9-1.2-2.3-0.6-3c0.6-0.7,1.9-0.5,2.8,0.4
		C95.7,181.6,96,182.9,95.4,183.6z M103.4,186.2c-0.3,0.9-1.5,1.3-2.7,0.9c-1.2-0.4-2-1.5-1.8-2.4c0.3-0.9,1.5-1.3,2.7-0.9
		C102.8,184.2,103.6,185.2,103.4,186.2z M112.4,187.2c0,1-1,1.7-2.3,1.8c-1.3,0-2.3-0.7-2.4-1.7c0-1,1-1.7,2.3-1.8
		C111.4,185.5,112.4,186.3,112.4,187.2z M121.4,186.9c0.2,0.9-0.7,1.9-2,2.1c-1.3,0.2-2.4-0.3-2.6-1.3c-0.2-1,0.8-1.9,2-2.2
		C120.1,185.4,121.2,185.9,121.4,186.9z"/>
</g>
</svg>
