<?xml version="1.0" encoding="utf-8"?>
<!-- Generator: Adobe Illustrator 26.0.2, SVG Export Plug-In . SVG Version: 6.00 Build 0)  -->
<svg version="1.1" id="Layer_1" xmlns="http://www.w3.org/2000/svg" xmlns:xlink="http://www.w3.org/1999/xlink" x="0px" y="0px"
	 viewBox="0 0 300.4 224.6" style="enable-background:new 0 0 300.4 224.6;" xml:space="preserve">
<style type="text/css">
	.st0{fill:#E34E26;}
	.st1{fill:#EF662A;}
	.st2{fill:#FFFFFF;}
	.st3{fill:#EBEBEB;}
</style>
<g>
	<g>
		<g>
			<path d="M83,23.4h10.5v5.1h9.6v-5.1h10.5v15.4h-10.5v-5.1h-9.6v5.1H83V23.4L83,23.4z"/>
			<path d="M127.3,28.5h-9.2v-5.1h29v5.1h-9.2v10.3h-10.5L127.3,28.5L127.3,28.5z"/>
			<path d="M151.7,23.4h10.9l6.7,5.4l6.7-5.4h11v15.4h-10.4v-7.6l-7.2,5.5h-0.2l-7.2-5.5v7.6h-10.3L151.7,23.4L151.7,23.4z"/>
			<path d="M192.2,23.4h10.5v10.3h14.8v5.1h-25.2V23.4H192.2z"/>
		</g>
	</g>
</g>
<g id="Guides_to_delete">
	<g>
		<polygon class="st0" points="95.3,203.3 83,45 217.5,45 205.2,203.3 150.2,220.9 		"/>
		<polygon class="st1" points="150.2,57.9 150.2,207.5 194.7,193.3 205.2,57.9 		"/>
		<polygon class="st2" points="108,77.4 112.6,136.1 170.9,136.1 169,161.3 150.2,167.1 131.4,161.3 130.1,145.1 113.3,145.1 
			115.7,176.2 150.2,187.3 184.8,176.2 189.4,116.7 128,116.7 126.4,96.8 190.8,96.8 190.9,96.8 192.4,77.4 		"/>
		<g>
			<polygon class="st3" points="150.2,77.4 108,77.4 112.6,136.1 150.2,136.1 150.2,116.7 128,116.7 126.4,96.8 150.2,96.8 			"/>
			<polygon class="st3" points="150.2,167.1 150.2,167.1 131.4,161.3 130.1,145.1 113.3,145.1 115.7,176.2 150.2,187.3 150.2,187.3 
							"/>
		</g>
	</g>
</g>
</svg>
