<?xml version="1.0" encoding="utf-8"?>
<!-- Generator: Adobe Illustrator 26.0.2, SVG Export Plug-In . SVG Version: 6.00 Build 0)  -->
<svg version="1.1" id="Layer_1" xmlns="http://www.w3.org/2000/svg" xmlns:xlink="http://www.w3.org/1999/xlink" x="0px" y="0px"
	 viewBox="0 0 300 225" style="enable-background:new 0 0 300 225;" xml:space="preserve">
<style type="text/css">
	.st0{fill:#F3F70D;}
</style>
<path class="st0" d="M215.6,131.7c-1.5-11.8-7.6-21.8-25.8-31c-6.3-3.6-13.3-6.3-15.4-12.3c-0.7-3.5-0.8-5.5-0.4-7.6
	c1.4-6.9,7.9-9,13-7c3.3,1.4,6.5,4.6,8.4,9.8c8.9-7.2,8.9-7.2,15.1-12.2c-2.3-4.4-3.5-6.5-5-8.4c-5.3-7.5-12.6-11.4-24.3-11.1
	c-2,0.3-4.1,0.7-6.1,1c-5.8,1.8-11.4,5.7-14.6,10.8c-9.7,13.9-7,38.3,4.9,48.3c11.7,11,28.8,13.5,31,23.9
	c2.1,12.6-7.4,16.7-16.8,15.3c-7-1.8-10.8-6.3-15-14.4c-7.7,5.6-7.7,5.6-15.6,11.4c1.9,5.2,3.9,7.5,7,12
	c14.9,19,52.2,18.1,58.9-10.7C215.3,148.4,217.1,141.8,215.6,131.7z M138.5,53.4h-19.3c0,20.9-0.1,41.7-0.1,62.7
	c0,13.3,0.5,25.5-1.2,29.3c-2.8,7.4-10.1,6.5-13.4,5c-3.4-2.1-5.1-5.1-7.1-9.3c-0.5-1.2-1-2.1-1.1-2.2c-5.2,4-10.4,8.1-15.7,12.1
	c2.6,6.7,6.4,12.6,11.4,16.4c7.3,5.5,17.2,7.2,27.5,4.3c6.7-2.5,12.5-7.6,15.5-15.3c4.4-10.2,3.4-22.5,3.4-36.1
	C138.6,98,138.5,75.7,138.5,53.4L138.5,53.4z"/>
</svg>
